<svg width="21" height="22" viewBox="0 0 21 22" fill="none" xmlns="http://www.w3.org/2000/svg">
<path d="M18.7647 1.72549H15.9608V0.647059C15.9608 0.475448 15.8926 0.310866 15.7713 0.189519C15.6499 0.068172 15.4853 0 15.3137 0C15.1421 0 14.9775 0.068172 14.8562 0.189519C14.7348 0.310866 14.6667 0.475448 14.6667 0.647059V1.72549H5.60784V0.647059C5.60784 0.475448 5.53967 0.310866 5.41832 0.189519C5.29698 0.068172 5.1324 0 4.96078 0C4.78917 0 4.62459 0.068172 4.50324 0.189519C4.3819 0.310866 4.31373 0.475448 4.31373 0.647059V1.72549H1.5098C1.10938 1.72549 0.725355 1.88456 0.442211 2.1677C0.159068 2.45084 0 2.83487 0 3.23529V20.4902C0 20.8906 0.159068 21.2746 0.442211 21.5578C0.725355 21.8409 1.10938 22 1.5098 22H18.7647C19.1651 22 19.5492 21.8409 19.8323 21.5578C20.1154 21.2746 20.2745 20.8906 20.2745 20.4902V3.23529C20.2745 2.83487 20.1154 2.45084 19.8323 2.1677C19.5492 1.88456 19.1651 1.72549 18.7647 1.72549ZM1.5098 3.01961H4.31373V4.09804C4.31373 4.26965 4.3819 4.43423 4.50324 4.55558C4.62459 4.67693 4.78917 4.7451 4.96078 4.7451C5.1324 4.7451 5.29698 4.67693 5.41832 4.55558C5.53967 4.43423 5.60784 4.26965 5.60784 4.09804V3.01961H14.6667V4.09804C14.6667 4.26965 14.7348 4.43423 14.8562 4.55558C14.9775 4.67693 15.1421 4.7451 15.3137 4.7451C15.4853 4.7451 15.6499 4.67693 15.7713 4.55558C15.8926 4.43423 15.9608 4.26965 15.9608 4.09804V3.01961H18.7647C18.8219 3.01961 18.8768 3.04233 18.9172 3.08278C18.9577 3.12323 18.9804 3.17809 18.9804 3.23529V6.90196H1.29412V3.23529C1.29412 3.17809 1.31684 3.12323 1.35729 3.08278C1.39774 3.04233 1.4526 3.01961 1.5098 3.01961ZM18.7647 20.7059H1.5098C1.4526 20.7059 1.39774 20.6832 1.35729 20.6427C1.31684 20.6023 1.29412 20.5474 1.29412 20.4902V8.19608H18.9804V20.4902C18.9804 20.5474 18.9577 20.6023 18.9172 20.6427C18.8768 20.6832 18.8219 20.7059 18.7647 20.7059ZM8.19608 11V17.902C8.19608 18.0736 8.12791 18.2382 8.00656 18.3595C7.88521 18.4808 7.72063 18.549 7.54902 18.549C7.37741 18.549 7.21283 18.4808 7.09148 18.3595C6.97013 18.2382 6.90196 18.0736 6.90196 17.902V12.0472L6.11255 12.4419C6.0365 12.4798 5.95372 12.5024 5.86893 12.5084C5.78414 12.5143 5.69901 12.5035 5.6184 12.4766C5.53779 12.4497 5.46327 12.4071 5.3991 12.3514C5.33493 12.2956 5.28237 12.2278 5.24441 12.1518C5.20646 12.0757 5.18385 11.9929 5.17789 11.9081C5.17193 11.8234 5.18273 11.7382 5.20966 11.6576C5.2366 11.577 5.27915 11.5025 5.33489 11.4383C5.39063 11.3741 5.45846 11.3216 5.53451 11.2836L7.26 10.4209C7.35867 10.3716 7.46828 10.3484 7.57845 10.3534C7.68861 10.3584 7.79567 10.3915 7.88945 10.4495C7.98323 10.5076 8.06063 10.5886 8.11429 10.6849C8.16796 10.7813 8.19611 10.8897 8.19608 11ZM14.6203 14.1544L12.2941 17.2549H14.451C14.6226 17.2549 14.7872 17.3231 14.9085 17.4444C15.0299 17.5658 15.098 17.7304 15.098 17.902C15.098 18.0736 15.0299 18.2382 14.9085 18.3595C14.7872 18.4808 14.6226 18.549 14.451 18.549H11C10.8798 18.549 10.762 18.5156 10.6598 18.4524C10.5576 18.3892 10.475 18.2988 10.4213 18.1913C10.3675 18.0839 10.3448 17.9635 10.3556 17.8439C10.3663 17.7242 10.4103 17.6099 10.4824 17.5137L13.5882 13.3725C13.6777 13.255 13.742 13.1204 13.7773 12.977C13.8126 12.8336 13.818 12.6845 13.7933 12.5389C13.7686 12.3933 13.7142 12.2543 13.6336 12.1306C13.5529 12.0069 13.4477 11.901 13.3245 11.8196C13.2013 11.7382 13.0627 11.683 12.9173 11.6574C12.7718 11.6317 12.6227 11.6362 12.479 11.6706C12.3354 11.705 12.2004 11.7685 12.0823 11.8572C11.9643 11.9459 11.8657 12.0579 11.7926 12.1863C11.7541 12.2667 11.6992 12.3383 11.6317 12.3966C11.5641 12.4548 11.4852 12.4985 11.3999 12.5248C11.3146 12.5511 11.2248 12.5594 11.1362 12.5494C11.0475 12.5393 10.9619 12.511 10.8847 12.4662C10.8075 12.4215 10.7404 12.3613 10.6876 12.2893C10.6348 12.2174 10.5975 12.1353 10.5779 12.0483C10.5583 11.9612 10.557 11.871 10.574 11.7834C10.5909 11.6958 10.6258 11.6127 10.6765 11.5392C10.8391 11.26 11.057 11.017 11.3169 10.8251C11.5767 10.6331 11.8731 10.4962 12.1877 10.4228C12.5023 10.3495 12.8287 10.3411 13.1466 10.3983C13.4646 10.4555 13.7676 10.5771 14.0369 10.7555C14.3062 10.9339 14.5363 11.1655 14.713 11.436C14.8896 11.7065 15.0092 12.0102 15.0643 12.3285C15.1195 12.6469 15.109 12.9731 15.0336 13.2873C14.9581 13.6014 14.8193 13.8969 14.6257 14.1555L14.6203 14.1544Z" fill="black"/>
</svg>
