<svg xmlns="http://www.w3.org/2000/svg" width="12" height="12" viewBox="0 0 12 12" fill="none">
  <path d="M6 7.0968L3.8784 4.9758C3.76524 4.86651 3.61368 4.80603 3.45636 4.8074C3.29904 4.80876 3.14855 4.87186 3.03731 4.98311C2.92606 5.09435 2.86296 5.24484 2.8616 5.40216C2.86023 5.55948 2.92071 5.71104 3.03 5.8242L5.5758 8.37C5.63139 8.42591 5.69749 8.47028 5.77029 8.50056C5.84309 8.53083 5.92116 8.54642 6 8.54642C6.07885 8.54642 6.15691 8.53083 6.22971 8.50056C6.30251 8.47028 6.36861 8.42591 6.4242 8.37L8.97 5.8242C9.02731 5.76885 9.07302 5.70265 9.10446 5.62944C9.13591 5.55624 9.15246 5.47751 9.15315 5.39784C9.15384 5.31817 9.13866 5.23917 9.10849 5.16543C9.07832 5.09169 9.03377 5.0247 8.97744 4.96836C8.9211 4.91203 8.85411 4.86748 8.78037 4.83731C8.70663 4.80714 8.62763 4.79196 8.54796 4.79265C8.46829 4.79334 8.38956 4.80989 8.31636 4.84134C8.24316 4.87278 8.17695 4.91849 8.1216 4.9758L6 7.0968ZM2.4 0H9.6C10.2365 0 10.847 0.252856 11.2971 0.702944C11.7471 1.15303 12 1.76348 12 2.4V9.6C12 10.2365 11.7471 10.847 11.2971 11.2971C10.847 11.7471 10.2365 12 9.6 12H2.4C1.76348 12 1.15303 11.7471 0.702944 11.2971C0.252856 10.847 0 10.2365 0 9.6V2.4C0 1.76348 0.252856 1.15303 0.702944 0.702944C1.15303 0.252856 1.76348 0 2.4 0Z" fill="#001378"/>
</svg>