<svg xmlns="http://www.w3.org/2000/svg" width="25" height="25" viewBox="0 0 25 25" fill="none">
  <path d="M1.5625 22.2656C1.5625 22.5764 1.68597 22.8745 1.90573 23.0943C2.1255 23.314 2.42357 23.4375 2.73438 23.4375H22.2656C22.5764 23.4375 22.8745 23.314 23.0943 23.0943C23.314 22.8745 23.4375 22.5764 23.4375 22.2656V8.59375H1.5625V22.2656ZM17.1875 10.3516C17.1875 10.2998 17.2081 10.2501 17.2447 10.2135C17.2813 10.1768 17.331 10.1562 17.3828 10.1562H19.3359C19.3877 10.1562 19.4374 10.1768 19.474 10.2135C19.5107 10.2501 19.5312 10.2998 19.5312 10.3516V12.3047C19.5312 12.3565 19.5107 12.4062 19.474 12.4428C19.4374 12.4794 19.3877 12.5 19.3359 12.5H17.3828C17.331 12.5 17.2813 12.4794 17.2447 12.4428C17.2081 12.4062 17.1875 12.3565 17.1875 12.3047V10.3516ZM17.1875 14.2578C17.1875 14.206 17.2081 14.1563 17.2447 14.1197C17.2813 14.0831 17.331 14.0625 17.3828 14.0625H19.3359C19.3877 14.0625 19.4374 14.0831 19.474 14.1197C19.5107 14.1563 19.5312 14.206 19.5312 14.2578V16.2109C19.5312 16.2627 19.5107 16.3124 19.474 16.349C19.4374 16.3857 19.3877 16.4062 19.3359 16.4062H17.3828C17.331 16.4062 17.2813 16.3857 17.2447 16.349C17.2081 16.3124 17.1875 16.2627 17.1875 16.2109V14.2578ZM13.2812 10.3516C13.2812 10.2998 13.3018 10.2501 13.3385 10.2135C13.3751 10.1768 13.4248 10.1562 13.4766 10.1562H15.4297C15.4815 10.1562 15.5312 10.1768 15.5678 10.2135C15.6044 10.2501 15.625 10.2998 15.625 10.3516V12.3047C15.625 12.3565 15.6044 12.4062 15.5678 12.4428C15.5312 12.4794 15.4815 12.5 15.4297 12.5H13.4766C13.4248 12.5 13.3751 12.4794 13.3385 12.4428C13.3018 12.4062 13.2812 12.3565 13.2812 12.3047V10.3516ZM13.2812 14.2578C13.2812 14.206 13.3018 14.1563 13.3385 14.1197C13.3751 14.0831 13.4248 14.0625 13.4766 14.0625H15.4297C15.4815 14.0625 15.5312 14.0831 15.5678 14.1197C15.6044 14.1563 15.625 14.206 15.625 14.2578V16.2109C15.625 16.2627 15.6044 16.3124 15.5678 16.349C15.5312 16.3857 15.4815 16.4062 15.4297 16.4062H13.4766C13.4248 16.4062 13.3751 16.3857 13.3385 16.349C13.3018 16.3124 13.2812 16.2627 13.2812 16.2109V14.2578ZM13.2812 18.1641C13.2812 18.1123 13.3018 18.0626 13.3385 18.026C13.3751 17.9893 13.4248 17.9688 13.4766 17.9688H15.4297C15.4815 17.9688 15.5312 17.9893 15.5678 18.026C15.6044 18.0626 15.625 18.1123 15.625 18.1641V20.1172C15.625 20.169 15.6044 20.2187 15.5678 20.2553C15.5312 20.2919 15.4815 20.3125 15.4297 20.3125H13.4766C13.4248 20.3125 13.3751 20.2919 13.3385 20.2553C13.3018 20.2187 13.2812 20.169 13.2812 20.1172V18.1641ZM9.375 14.2578C9.375 14.206 9.39558 14.1563 9.43221 14.1197C9.46883 14.0831 9.51851 14.0625 9.57031 14.0625H11.5234C11.5752 14.0625 11.6249 14.0831 11.6615 14.1197C11.6982 14.1563 11.7188 14.206 11.7188 14.2578V16.2109C11.7188 16.2627 11.6982 16.3124 11.6615 16.349C11.6249 16.3857 11.5752 16.4062 11.5234 16.4062H9.57031C9.51851 16.4062 9.46883 16.3857 9.43221 16.349C9.39558 16.3124 9.375 16.2627 9.375 16.2109V14.2578ZM9.375 18.1641C9.375 18.1123 9.39558 18.0626 9.43221 18.026C9.46883 17.9893 9.51851 17.9688 9.57031 17.9688H11.5234C11.5752 17.9688 11.6249 17.9893 11.6615 18.026C11.6982 18.0626 11.7188 18.1123 11.7188 18.1641V20.1172C11.7188 20.169 11.6982 20.2187 11.6615 20.2553C11.6249 20.2919 11.5752 20.3125 11.5234 20.3125H9.57031C9.51851 20.3125 9.46883 20.2919 9.43221 20.2553C9.39558 20.2187 9.375 20.169 9.375 20.1172V18.1641ZM5.46875 14.2578C5.46875 14.206 5.48933 14.1563 5.52596 14.1197C5.56258 14.0831 5.61226 14.0625 5.66406 14.0625H7.61719C7.66899 14.0625 7.71867 14.0831 7.75529 14.1197C7.79192 14.1563 7.8125 14.206 7.8125 14.2578V16.2109C7.8125 16.2627 7.79192 16.3124 7.75529 16.349C7.71867 16.3857 7.66899 16.4062 7.61719 16.4062H5.66406C5.61226 16.4062 5.56258 16.3857 5.52596 16.349C5.48933 16.3124 5.46875 16.2627 5.46875 16.2109V14.2578ZM5.46875 18.1641C5.46875 18.1123 5.48933 18.0626 5.52596 18.026C5.56258 17.9893 5.61226 17.9688 5.66406 17.9688H7.61719C7.66899 17.9688 7.71867 17.9893 7.75529 18.026C7.79192 18.0626 7.8125 18.1123 7.8125 18.1641V20.1172C7.8125 20.169 7.79192 20.2187 7.75529 20.2553C7.71867 20.2919 7.66899 20.3125 7.61719 20.3125H5.66406C5.61226 20.3125 5.56258 20.2919 5.52596 20.2553C5.48933 20.2187 5.46875 20.169 5.46875 20.1172V18.1641ZM22.2656 3.125H19.5352V1.5625H17.1914V3.125H7.80859V1.5625H5.46484V3.125H2.73438C2.58107 3.12371 2.42902 3.15277 2.28699 3.2105C2.14497 3.26824 2.01577 3.3535 1.90684 3.46139C1.79791 3.56927 1.71141 3.69764 1.65231 3.83911C1.59321 3.98057 1.56269 4.13233 1.5625 4.28564V7.03125H23.4375V4.28564C23.4373 4.13233 23.4068 3.98057 23.3477 3.83911C23.2886 3.69764 23.2021 3.56927 23.0932 3.46139C22.9842 3.3535 22.855 3.26824 22.713 3.2105C22.571 3.15277 22.4189 3.12371 22.2656 3.125Z" fill="#1A35C8"/>
</svg>