<svg width="22" height="22" viewBox="0 0 22 22" fill="none" xmlns="http://www.w3.org/2000/svg">
<path id="Vector" d="M7.7 22C7.40826 22 7.12847 21.8841 6.92218 21.6778C6.71589 21.4715 6.6 21.1917 6.6 20.9V17.6H2.2C1.61652 17.6 1.05694 17.3682 0.644365 16.9556C0.231785 16.5431 0 15.9835 0 15.4V2.2C0 1.61652 0.231785 1.05694 0.644365 0.644365C1.05694 0.231785 1.61652 0 2.2 0H19.8C20.3835 0 20.9431 0.231785 21.3556 0.644365C21.7682 1.05694 22 1.61652 22 2.2V15.4C22 15.9835 21.7682 16.5431 21.3556 16.9556C20.9431 17.3682 20.3835 17.6 19.8 17.6H13.09L9.02 21.681C8.8 21.89 8.525 22 8.25 22H7.7ZM15.4 13.2V12.1C15.4 10.637 12.463 9.9 11 9.9C9.537 9.9 6.6 10.637 6.6 12.1V13.2H15.4ZM11 4.4C10.4165 4.4 9.85695 4.63178 9.44437 5.04436C9.03179 5.45694 8.8 6.01652 8.8 6.6C8.8 7.18348 9.03179 7.74305 9.44437 8.15563C9.85695 8.56821 10.4165 8.8 11 8.8C11.5835 8.8 12.1431 8.56821 12.5556 8.15563C12.9682 7.74305 13.2 7.18348 13.2 6.6C13.2 6.01652 12.9682 5.45694 12.5556 5.04436C12.1431 4.63178 11.5835 4.4 11 4.4Z" fill="#1A35C8"/>
</svg>
