<svg width="20" height="22" viewBox="0 0 20 22" fill="none" xmlns="http://www.w3.org/2000/svg">
<path d="M6.175 17.6V17.425H6H2C1.52165 17.425 1.0591 17.2161 0.715276 16.8379C0.370947 16.4592 0.175 15.9422 0.175 15.4V2.2C0.175 1.65784 0.370947 1.14084 0.715276 0.762083C1.0591 0.383876 1.52165 0.175 2 0.175H18C18.4783 0.175 18.9409 0.383876 19.2847 0.762083C19.6291 1.14084 19.825 1.65784 19.825 2.2V15.4C19.825 15.9422 19.6291 16.4592 19.2847 16.8379C18.9409 17.2161 18.4783 17.425 18 17.425H11.9H11.8224L11.7704 17.4825L8.07202 21.5616C7.90166 21.7389 7.69659 21.825 7.5 21.825H7C6.78687 21.825 6.57867 21.732 6.42238 21.5601C6.26559 21.3876 6.175 21.1504 6.175 20.9V17.6ZM11.1574 15.575H18H18.175V15.4V2.2V2.025H18H2H1.825V2.2V15.4V15.575H2H7.825V18.788V19.2407L8.12949 18.9057L11.1574 15.575ZM6.175 13.025V12.1C6.175 11.7925 6.31402 11.5139 6.56256 11.2619C6.8127 11.0084 7.16653 10.79 7.57177 10.6115C8.38327 10.2542 9.35925 10.075 10 10.075C10.6408 10.075 11.6167 10.2542 12.4282 10.6115C12.8335 10.79 13.1873 11.0084 13.4374 11.2619C13.686 11.5139 13.825 11.7925 13.825 12.1V13.025H6.175ZM10 4.575C10.4783 4.575 10.9409 4.78388 11.2847 5.16208C11.6291 5.54084 11.825 6.05784 11.825 6.6C11.825 7.14216 11.6291 7.65915 11.2847 8.03792C10.9409 8.41612 10.4783 8.625 10 8.625C9.52165 8.625 9.0591 8.41612 8.71528 8.03792C8.37095 7.65915 8.175 7.14216 8.175 6.6C8.175 6.05784 8.37095 5.54084 8.71528 5.16208C9.0591 4.78388 9.52165 4.575 10 4.575Z" fill="#1D252D" stroke="white" stroke-width="0.35"/>
</svg>
