<svg xmlns="http://www.w3.org/2000/svg" fill="none" viewBox="3 0 28 28">
<g filter="url(#filter0_d)">
<path d="M3 28L4.96097 21.0428C3.69995 18.9029 3.03602 16.4681 3.03602 13.9669C3.03602 6.26551 9.30833 0 17.0181 0C24.7278 0 31 6.26551 31 13.9669C31 21.6682 24.7278 27.9337 17.0181 27.9337C14.6158 27.9337 12.2634 27.3195 10.1825 26.1531L3 28Z" fill="#1BD741"/>
<path d="M3 28L4.96097 21.0428C3.69995 18.9029 3.03602 16.4681 3.03602 13.9669C3.03602 6.26551 9.30833 0 17.0181 0C24.7278 0 31 6.26551 31 13.9669C31 21.6682 24.7278 27.9337 17.0181 27.9337C14.6158 27.9337 12.2634 27.3195 10.1825 26.1531L3 28ZM10.5497 23.6122L10.9777 23.8732C12.792 24.9797 14.8808 25.5645 17.0181 25.5645C23.4199 25.5645 28.6282 20.3618 28.6282 13.9669C28.6282 7.57193 23.4199 2.36925 17.0181 2.36925C10.6162 2.36925 5.40783 7.57193 5.40783 13.9669C5.40783 16.1951 6.04181 18.3589 7.24107 20.2244L7.52929 20.6727L6.40004 24.6792L10.5497 23.6122Z" fill="white"/>
<path d="M13.0892 7.47292L12.1819 7.42352C11.897 7.40798 11.6174 7.50311 11.402 7.69001C10.9622 8.07155 10.2589 8.80918 10.0429 9.77039C9.72076 11.2036 10.2186 12.9586 11.507 14.7136C12.7954 16.4686 15.1965 19.2766 19.4423 20.4759C20.8105 20.8623 21.8868 20.6018 22.7172 20.0712C23.3749 19.6509 23.8282 18.9764 23.9916 18.2139L24.1365 17.538C24.1825 17.3232 24.0733 17.1052 23.8736 17.0133L20.8073 15.6014C20.6083 15.5098 20.3722 15.5678 20.2384 15.7411L19.0346 17.2998C18.9437 17.4176 18.788 17.4643 18.6475 17.415C17.8232 17.1256 15.0618 15.9704 13.5467 13.055C13.481 12.9285 13.4973 12.775 13.5905 12.6672L14.7409 11.3378C14.8585 11.202 14.8882 11.0112 14.8175 10.8462L13.4958 7.75732C13.4255 7.59287 13.2678 7.48266 13.0892 7.47292Z" fill="white"/>
</g>
<defs>
<filter id="filter0_d" x="0" y="0" width="34" height="34" filterUnits="userSpaceOnUse" color-interpolation-filters="sRGB">
<feFlood flood-opacity="0" result="BackgroundImageFix"/>
<feColorMatrix in="SourceAlpha" type="matrix" values="0 0 0 0 0 0 0 0 0 0 0 0 0 0 0 0 0 0 127 0" result="hardAlpha"/>
<feOffset dy="3"/>
<feGaussianBlur stdDeviation="1.5"/>
<feComposite in2="hardAlpha" operator="out"/>
<feColorMatrix type="matrix" values="0 0 0 0 0.113725 0 0 0 0 0.145098 0 0 0 0 0.176471 0 0 0 0.1 0"/>
<feBlend mode="normal" in2="BackgroundImageFix" result="effect1_dropShadow"/>
<feBlend mode="normal" in="SourceGraphic" in2="effect1_dropShadow" result="shape"/>
</filter>
</defs>
</svg>